# xmcd CD database file
#
# Track frame offsets:
#	150
#	10951
#	20280
#	29258
#	40005
#	49969
#	58901
#	69632
#	78879
#	90313
#	101631
#	112382
#
# Disc length: 1641 seconds
#
# Revision: 0
# Processed by: cddbd v1.5.1PL0 Copyright (c) Steve Scherf et al.
# Submitted via: CdAid (MTCDDB.DLL V2003.12.21)
#
DISCID=9806670c
DTITLE=Chet Atkins - Teen Scene
DYEAR=2005
DGENRE=Country
TTITLE0=I Got a Woman
TTITLE1=Rumpus
TTITLE2=I Love How You Love Me
TTITLE3=Alley Cat
TTITLE4=Walk Right In
TTITLE5=Back Home Again in Indiana
TTITLE6=Teen Scene
TTITLE7=Sweetie Baby
TTITLE8=A Little Evil
TTITLE9=I Will
TTITLE10=Bye Bye Birdie
TTITLE11=Susie-Q
EXTD=ID3G:   2 YEAR: 2005
EXTT0=
EXTT1=
EXTT2=
EXTT3=
EXTT4=
EXTT5=
EXTT6=
EXTT7=
EXTT8=
EXTT9=
EXTT10=
EXTT11=
PLAYORDER=
